<?xml version="1.0" encoding="UTF-8" standalone="no"?>
<!-- Created with Inkscape (http://www.inkscape.org/) -->

<svg
   xmlns:svg="http://www.w3.org/2000/svg"
   xmlns="http://www.w3.org/2000/svg"
   xmlns:xlink="http://www.w3.org/1999/xlink"
   version="1.0"
   width="300"
   height="300"
   id="svg2"
   style="display:inline;enable-background:new">
  <defs
     id="defs4">
    <linearGradient
       id="linearGradient4040">
      <stop
         id="stop4042"
         style="stop-color:#ffffff;stop-opacity:1"
         offset="0" />
      <stop
         id="stop4044"
         style="stop-color:#ffffff;stop-opacity:0"
         offset="1" />
    </linearGradient>
    <linearGradient
       id="linearGradient4024">
      <stop
         id="stop4026"
         style="stop-color:#ffffff;stop-opacity:1"
         offset="0" />
      <stop
         id="stop4028"
         style="stop-color:#ffffff;stop-opacity:0"
         offset="1" />
    </linearGradient>
    <linearGradient
       id="linearGradient4013">
      <stop
         id="stop4015"
         style="stop-color:#ffffff;stop-opacity:0"
         offset="0" />
      <stop
         id="stop4017"
         style="stop-color:#ffffff;stop-opacity:0.75"
         offset="1" />
    </linearGradient>
    <linearGradient
       id="linearGradient3966">
      <stop
         id="stop3968"
         style="stop-color:#ffffff;stop-opacity:1"
         offset="0" />
      <stop
         id="stop3970"
         style="stop-color:#ffffff;stop-opacity:0"
         offset="1" />
    </linearGradient>
    <linearGradient
       id="linearGradient3923">
      <stop
         id="stop3925"
         style="stop-color:#ffffff;stop-opacity:1"
         offset="0" />
      <stop
         id="stop3927"
         style="stop-color:#ffffff;stop-opacity:0"
         offset="1" />
    </linearGradient>
    <linearGradient
       id="linearGradient3909">
      <stop
         id="stop3911"
         style="stop-color:#ffffff;stop-opacity:1"
         offset="0" />
      <stop
         id="stop3913"
         style="stop-color:#ffffff;stop-opacity:0"
         offset="1" />
    </linearGradient>
    <linearGradient
       id="linearGradient3841">
      <stop
         id="stop3843"
         style="stop-color:#ffffff;stop-opacity:1"
         offset="0" />
      <stop
         id="stop3845"
         style="stop-color:#ffffff;stop-opacity:0"
         offset="1" />
    </linearGradient>
    <linearGradient
       id="linearGradient3479">
      <stop
         id="stop3481"
         style="stop-color:#ffffff;stop-opacity:1"
         offset="0" />
      <stop
         id="stop3483"
         style="stop-color:#ffffff;stop-opacity:0"
         offset="1" />
    </linearGradient>
    <linearGradient
       id="linearGradient3451">
      <stop
         id="stop3453"
         style="stop-color:#ffffff;stop-opacity:1"
         offset="0" />
      <stop
         id="stop3455"
         style="stop-color:#ffffff;stop-opacity:0"
         offset="1" />
    </linearGradient>
    <linearGradient
       id="linearGradient3432">
      <stop
         id="stop3434"
         style="stop-color:#ffffff;stop-opacity:1"
         offset="0" />
      <stop
         id="stop3436"
         style="stop-color:#ffffff;stop-opacity:0"
         offset="1" />
    </linearGradient>
    <linearGradient
       id="linearGradient3413">
      <stop
         id="stop3415"
         style="stop-color:#ffffff;stop-opacity:1"
         offset="0" />
      <stop
         id="stop3417"
         style="stop-color:#ffffff;stop-opacity:0"
         offset="1" />
    </linearGradient>
    <linearGradient
       id="linearGradient3394">
      <stop
         id="stop3396"
         style="stop-color:#ffffff;stop-opacity:1"
         offset="0" />
      <stop
         id="stop3398"
         style="stop-color:#ffffff;stop-opacity:0"
         offset="1" />
    </linearGradient>
    <linearGradient
       id="linearGradient3380">
      <stop
         id="stop3382"
         style="stop-color:#ffffff;stop-opacity:1"
         offset="0" />
      <stop
         id="stop3384"
         style="stop-color:#ffffff;stop-opacity:0"
         offset="1" />
    </linearGradient>
    <linearGradient
       id="linearGradient3364">
      <stop
         id="stop3366"
         style="stop-color:#ffffff;stop-opacity:1"
         offset="0" />
      <stop
         id="stop3368"
         style="stop-color:#ffffff;stop-opacity:0"
         offset="1" />
    </linearGradient>
    <linearGradient
       id="linearGradient3348">
      <stop
         id="stop3350"
         style="stop-color:#ffffff;stop-opacity:1"
         offset="0" />
      <stop
         id="stop3352"
         style="stop-color:#ffffff;stop-opacity:0"
         offset="1" />
    </linearGradient>
    <linearGradient
       id="linearGradient3319">
      <stop
         id="stop3321"
         style="stop-color:#ffffff;stop-opacity:1"
         offset="0" />
      <stop
         id="stop3323"
         style="stop-color:#ffffff;stop-opacity:0"
         offset="1" />
    </linearGradient>
    <linearGradient
       id="linearGradient3291">
      <stop
         id="stop3293"
         style="stop-color:#ffffff;stop-opacity:1"
         offset="0" />
      <stop
         id="stop3295"
         style="stop-color:#f9f9f9;stop-opacity:0"
         offset="1" />
    </linearGradient>
    <linearGradient
       id="linearGradient3266">
      <stop
         id="stop3268"
         style="stop-color:#ffffff;stop-opacity:1"
         offset="0" />
      <stop
         id="stop3270"
         style="stop-color:#ffffff;stop-opacity:0"
         offset="1" />
    </linearGradient>
    <linearGradient
       id="linearGradient3242">
      <stop
         id="stop3244"
         style="stop-color:#eac300;stop-opacity:1"
         offset="0" />
      <stop
         id="stop3246"
         style="stop-color:#eee300;stop-opacity:1"
         offset="1" />
    </linearGradient>
    <linearGradient
       id="linearGradient3800">
      <stop
         id="stop3802"
         style="stop-color:#e0cd00;stop-opacity:1"
         offset="0" />
      <stop
         id="stop3804"
         style="stop-color:#dfba00;stop-opacity:1"
         offset="1" />
    </linearGradient>
    <linearGradient
       id="linearGradient3766">
      <stop
         id="stop3768"
         style="stop-color:#dbdbdb;stop-opacity:1"
         offset="0" />
      <stop
         id="stop3770"
         style="stop-color:#bcbcbc;stop-opacity:1"
         offset="1" />
    </linearGradient>
    <linearGradient
       id="linearGradient3322">
      <stop
         id="stop3324"
         style="stop-color:#dbdbdb;stop-opacity:1"
         offset="0" />
      <stop
         id="stop3326"
         style="stop-color:#bcbcbc;stop-opacity:1"
         offset="1" />
    </linearGradient>
    <filter
       x="-0.23633246"
       y="-0.18419033"
       width="1.472665"
       height="1.3683807"
       color-interpolation-filters="sRGB"
       id="filter3755">
      <feGaussianBlur
         id="feGaussianBlur3757"
         stdDeviation="4.734848" />
    </filter>
    <filter
       x="-0.21690734"
       y="-0.19249654"
       width="1.4338146"
       height="1.3849931"
       color-interpolation-filters="sRGB"
       id="filter3759">
      <feGaussianBlur
         id="feGaussianBlur3761"
         stdDeviation="4.4095789" />
    </filter>
    <linearGradient
       x1="150.98347"
       y1="116.40334"
       x2="148.89116"
       y2="263.82382"
       id="linearGradient3772"
       xlink:href="#linearGradient3766"
       gradientUnits="userSpaceOnUse" />
    <linearGradient
       x1="86.666016"
       y1="237.625"
       x2="131.19157"
       y2="263.5"
       id="linearGradient3806"
       xlink:href="#linearGradient3800"
       gradientUnits="userSpaceOnUse" />
    <linearGradient
       x1="86.666016"
       y1="237.625"
       x2="131.19157"
       y2="263.5"
       id="linearGradient3810"
       xlink:href="#linearGradient3800"
       gradientUnits="userSpaceOnUse"
       gradientTransform="translate(-0.7500002,-0.5)" />
    <linearGradient
       x1="86.666016"
       y1="237.625"
       x2="131.19157"
       y2="263.5"
       id="linearGradient3814"
       xlink:href="#linearGradient3800"
       gradientUnits="userSpaceOnUse"
       gradientTransform="translate(98.875,-0.5)" />
    <linearGradient
       x1="140.4375"
       y1="136.24171"
       x2="169.25"
       y2="123.80421"
       id="linearGradient3248"
       xlink:href="#linearGradient3242"
       gradientUnits="userSpaceOnUse"
       gradientTransform="translate(0,-1.125)" />
    <linearGradient
       x1="143.28357"
       y1="37.30983"
       x2="142.61986"
       y2="105.81752"
       id="linearGradient3272"
       xlink:href="#linearGradient3266"
       gradientUnits="userSpaceOnUse" />
    <linearGradient
       x1="150.41135"
       y1="263.07294"
       x2="150.41135"
       y2="201.75"
       id="linearGradient3297"
       xlink:href="#linearGradient3291"
       gradientUnits="userSpaceOnUse" />
    <linearGradient
       x1="126.57211"
       y1="134.71379"
       x2="126.57211"
       y2="73.018723"
       id="linearGradient3325"
       xlink:href="#linearGradient3319"
       gradientUnits="userSpaceOnUse"
       gradientTransform="matrix(0.9791973,0,0,0.9791973,2.8829065,2.3024049)" />
    <linearGradient
       x1="123.25307"
       y1="73.029305"
       x2="123.50838"
       y2="107.48573"
       id="linearGradient3343"
       xlink:href="#linearGradient3319"
       gradientUnits="userSpaceOnUse"
       gradientTransform="matrix(0.9791973,0,0,0.9791973,2.8829065,2.3024049)" />
    <linearGradient
       x1="122.93063"
       y1="134.71379"
       x2="122.63124"
       y2="103.86626"
       id="linearGradient3354"
       xlink:href="#linearGradient3348"
       gradientUnits="userSpaceOnUse"
       gradientTransform="matrix(0.9791973,0,0,0.9791973,2.4864599,2.4488515)" />
    <linearGradient
       x1="175.00893"
       y1="75.477066"
       x2="175.00893"
       y2="104.08327"
       id="linearGradient3370"
       xlink:href="#linearGradient3364"
       gradientUnits="userSpaceOnUse"
       gradientTransform="matrix(1,0,0,0.7909967,0,26.751641)" />
    <linearGradient
       x1="175.00893"
       y1="75.477066"
       x2="175.00893"
       y2="104.08327"
       id="linearGradient3375"
       xlink:href="#linearGradient3364"
       gradientUnits="userSpaceOnUse"
       gradientTransform="matrix(0.9717135,0,0,0.7686222,4.5157493,28.942866)" />
    <linearGradient
       x1="173.3295"
       y1="127.99628"
       x2="173.62556"
       y2="99.155228"
       id="linearGradient3386"
       xlink:href="#linearGradient3380"
       gradientUnits="userSpaceOnUse"
       gradientTransform="matrix(0.9794965,0,0,0.7747785,3.5881013,28.452505)" />
    <linearGradient
       x1="143.14493"
       y1="92.64093"
       x2="143.14493"
       y2="116.33069"
       id="linearGradient3400"
       xlink:href="#linearGradient3394"
       gradientUnits="userSpaceOnUse"
       gradientTransform="matrix(1.0444952,0,0,1.0144045,-6.921802,-1.110031)" />
    <linearGradient
       x1="143.14493"
       y1="92.64093"
       x2="143.14493"
       y2="116.33069"
       id="linearGradient3407"
       xlink:href="#linearGradient3394"
       gradientUnits="userSpaceOnUse"
       gradientTransform="matrix(1.0444952,0,0,1.0144045,-6.921802,-1.110031)" />
    <linearGradient
       x1="143.14493"
       y1="115.6219"
       x2="143.14493"
       y2="92.637955"
       id="linearGradient3426"
       xlink:href="#linearGradient3413"
       gradientUnits="userSpaceOnUse"
       gradientTransform="matrix(1.0444952,0,0,1.0144045,-6.921802,-1.360031)" />
    <linearGradient
       x1="157.57069"
       y1="97.57933"
       x2="157.57069"
       y2="114.50598"
       id="linearGradient3445"
       xlink:href="#linearGradient3432"
       gradientUnits="userSpaceOnUse"
       gradientTransform="matrix(0.9986207,0,0,0.9748053,-0.4339475,2.6836958)" />
    <linearGradient
       x1="157.96875"
       y1="113.9375"
       x2="157.96875"
       y2="97.25"
       id="linearGradient3457"
       xlink:href="#linearGradient3451"
       gradientUnits="userSpaceOnUse"
       gradientTransform="matrix(0.9986207,0,0,0.9748053,-0.4901659,2.8024142)" />
    <linearGradient
       x1="125.625"
       y1="67.625"
       x2="125.625"
       y2="90.375"
       id="linearGradient3724"
       xlink:href="#linearGradient3479"
       gradientUnits="userSpaceOnUse"
       gradientTransform="translate(1.5909903,0.1767767)" />
    <filter
       x="-0.091370553"
       y="-0.13333336"
       width="1.182741"
       height="1.2666667"
       color-interpolation-filters="sRGB"
       id="filter3830">
      <feGaussianBlur
         id="feGaussianBlur3832"
         stdDeviation="1.8749998" />
    </filter>
    <linearGradient
       x1="176.42314"
       y1="80.443344"
       x2="176.42314"
       y2="109.43472"
       id="linearGradient3860"
       xlink:href="#linearGradient3841"
       gradientUnits="userSpaceOnUse"
       gradientTransform="translate(-0.5303301,-1.4142136)" />
    <filter
       color-interpolation-filters="sRGB"
       id="filter3902">
      <feGaussianBlur
         id="feGaussianBlur3904"
         stdDeviation="2.0525443" />
    </filter>
    <linearGradient
       x1="165.125"
       y1="124.80428"
       x2="149.8932"
       y2="142.55428"
       id="linearGradient3915"
       xlink:href="#linearGradient3909"
       gradientUnits="userSpaceOnUse"
       gradientTransform="translate(0,-1.125)" />
    <linearGradient
       x1="140.76561"
       y1="140.05765"
       x2="166.41788"
       y2="123.79419"
       id="linearGradient3929"
       xlink:href="#linearGradient3923"
       gradientUnits="userSpaceOnUse" />
    <linearGradient
       x1="144.9287"
       y1="120.53125"
       x2="147.88812"
       y2="206.53125"
       id="linearGradient3972"
       xlink:href="#linearGradient3966"
       gradientUnits="userSpaceOnUse" />
    <linearGradient
       x1="150.54688"
       y1="251.73996"
       x2="150.54688"
       y2="263.88376"
       id="linearGradient4019"
       xlink:href="#linearGradient4013"
       gradientUnits="userSpaceOnUse"
       gradientTransform="translate(-1.2374369,-0.097086)" />
    <linearGradient
       x1="89.802559"
       y1="235.29974"
       x2="89.802559"
       y2="265.35178"
       id="linearGradient4030"
       xlink:href="#linearGradient4024"
       gradientUnits="userSpaceOnUse" />
    <linearGradient
       x1="89.802559"
       y1="235.29974"
       x2="89.802559"
       y2="265.35178"
       id="linearGradient4035"
       xlink:href="#linearGradient4024"
       gradientUnits="userSpaceOnUse" />
    <linearGradient
       x1="55.206333"
       y1="138.25"
       x2="63"
       y2="145.75"
       id="linearGradient4046"
       xlink:href="#linearGradient4040"
       gradientUnits="userSpaceOnUse" />
    <linearGradient
       x1="55.206333"
       y1="138.25"
       x2="63"
       y2="145.75"
       id="linearGradient4054"
       xlink:href="#linearGradient4040"
       gradientUnits="userSpaceOnUse"
       gradientTransform="matrix(-1,0,0,1,300.30284,0)" />
    <filter
       x="-0.14437115"
       y="-0.28460354"
       width="1.2887423"
       height="1.5692071"
       color-interpolation-filters="sRGB"
       id="filter4163">
      <feGaussianBlur
         id="feGaussianBlur4165"
         stdDeviation="5.5745442" />
    </filter>
    <filter
       x="-0.10505172"
       y="-0.48228288"
       width="1.2101034"
       height="1.9645658"
       color-interpolation-filters="sRGB"
       id="filter4263">
      <feGaussianBlur
         id="feGaussianBlur4265"
         stdDeviation="8.841853" />
    </filter>
    <filter
       x="-0.13263673"
       y="-0.23165999"
       width="1.2652735"
       height="1.46332"
       color-interpolation-filters="sRGB"
       id="filter4300">
      <feGaussianBlur
         id="feGaussianBlur4302"
         stdDeviation="3.6196874" />
    </filter>
  </defs>
  <g
     id="layer30">
    <path
       d="m 247,263 a 100,21 0 1 1 -200,0 100,21 0 1 1 200,0 z"
       id="path4173"
       style="opacity:0.8;fill:#000000;fill-opacity:1;fill-rule:nonzero;stroke:#ffffff;stroke-width:2;stroke-linecap:round;stroke-linejoin:round;stroke-miterlimit:4;stroke-opacity:1;stroke-dasharray:none;stroke-dashoffset:0;filter:url(#filter4263)" />
  </g>
  <g
     id="layer2">
    <path
       d="M 82.857144,91.785713 C 80.083472,117.4997 53.129232,138.55215 50.225298,142.49257 c -9.244955,8.54853 -18.257934,22.46147 -15.40079,25.94361 3.124999,5.98215 41.256983,-17.2063 41.256983,-17.2063 l 29.097079,-8.01559 15.53572,-24.64286 -37.857146,-26.785717 z"
       id="path2543"
       style="fill:#000000;fill-rule:evenodd;stroke:#000000;stroke-width:1px;stroke-linecap:butt;stroke-linejoin:miter;stroke-opacity:1" />
    <path
       d="m 216.39354,91.785713 c 2.77367,25.713987 29.72791,46.766437 32.63184,50.706857 9.24496,8.54853 18.25794,22.46147 15.40079,25.94361 -3.12499,5.98215 -41.25698,-17.2063 -41.25698,-17.2063 l -29.09708,-8.01559 -15.53572,-24.64286 37.85715,-26.785717 z"
       id="path2545"
       style="fill:#000000;fill-rule:evenodd;stroke:#000000;stroke-width:1px;stroke-linecap:butt;stroke-linejoin:miter;stroke-opacity:1" />
  </g>
  <g
     id="layer28"
     style="opacity:0.6">
    <path
       d="m 81,112.5 c -2.017767,2.44454 -54.75,52.5 -42.5,55 14.457107,-24.17678 28.255784,-14.9683 42.5,-55 z"
       id="path4038"
       style="fill:url(#linearGradient4046);fill-rule:evenodd;stroke:none" />
    <path
       d="m 41.719301,167.41747 c 0,0 15.909902,-6.8059 27.135222,-13.16986"
       id="path4048"
       style="fill:none;stroke:#ffffff;stroke-width:2;stroke-linecap:round;stroke-linejoin:miter;stroke-miterlimit:4;stroke-opacity:1;stroke-dasharray:none" />
    <path
       d="m 219.30284,112.5 c 2.01776,2.44454 54.75,52.5 42.5,55 -14.45711,-24.17678 -28.25579,-14.9683 -42.5,-55 z"
       id="path4050"
       style="fill:url(#linearGradient4054);fill-rule:evenodd;stroke:none" />
    <path
       d="m 258.58354,167.41747 c 0,0 -15.90991,-6.8059 -27.13523,-13.16986"
       id="path4052"
       style="fill:none;stroke:#ffffff;stroke-width:2;stroke-linecap:round;stroke-linejoin:miter;stroke-miterlimit:4;stroke-opacity:1;stroke-dasharray:none" />
  </g>
  <g
     id="layer1"
     style="display:inline">
    <path
       d="m 218.57143,102.85714 a 68.571426,68.571426 0 1 1 -137.142856,0 68.571426,68.571426 0 1 1 137.142856,0 z"
       id="path2536"
       style="fill:#000000;fill-opacity:1;fill-rule:nonzero;stroke:none" />
    <path
       d="m 234.99999,180.71428 a 84.285713,84.285713 0 1 1 -168.571424,0 84.285713,84.285713 0 1 1 168.571424,0 z"
       id="path2540"
       style="fill:#000000;fill-opacity:1;fill-rule:nonzero;stroke:none" />
  </g>
  <g
     id="layer8"
     style="display:inline">
    <path
       d="m 193.3937,78.675575 a 45.961941,41.365746 0 1 1 -91.92388,0 45.961941,41.365746 0 1 1 91.92388,0 z"
       transform="matrix(1.0653846,0,0,1.0811966,-6.6345653,-3.0294307)"
       id="path3264"
       style="fill:url(#linearGradient3272);fill-opacity:1;fill-rule:nonzero;stroke:none" />
  </g>
  <g
     id="layer9"
     style="display:inline">
    <path
       d="m 70.087849,201.75 c 12.571068,64.14024 126.808681,96.03724 160.646981,3.91161 -1.38388,-1 -71.93537,72.71301 -160.646981,-3.91161 z"
       id="path3288"
       style="fill:url(#linearGradient3297);fill-opacity:1;fill-rule:evenodd;stroke:none" />
  </g>
  <g
     id="layer18"
     style="display:inline">
    <path
       d="m 153.25,89.875 a 27.5,25.375 0 1 1 -55,0 27.5,25.375 0 1 1 55,0 z"
       id="path3471"
       style="fill:#000000;fill-opacity:1;fill-rule:nonzero;stroke:none" />
  </g>
  <g
     id="layer20"
     style="display:inline">
    <path
       d="m 127.21599,66.426777 c -13.593,0 -24.625,9.464 -24.625,21.125 0,4.737281 1.83278,9.100132 4.90625,12.624993 -1.38464,-2.501755 -2.125,-5.297701 -2.125,-8.249993 0,-10.636302 10.04475,-19.25 22.4375,-19.25 12.39275,0 22.4375,8.6137 22.4375,19.25 0,1.428149 -0.15603,2.816404 -0.5,4.15625 1.3453,-2.609253 2.09375,-5.496212 2.09375,-8.53125 0,-11.661 -11.032,-21.125 -24.625,-21.125 z"
       id="path3477"
       style="fill:url(#linearGradient3724);fill-opacity:1;fill-rule:nonzero;stroke:#000000;stroke-width:2.5999999;stroke-linecap:round;stroke-linejoin:round;stroke-miterlimit:4;stroke-opacity:1;stroke-dasharray:none;stroke-dashoffset:0;filter:url(#filter3830)" />
  </g>
  <g
     id="layer19"
     style="display:inline">
    <path
       d="m 201,95.125 a 25.125,20.125 0 1 1 -50.25,0 25.125,20.125 0 1 1 50.25,0 z"
       id="path3474"
       style="fill:#000000;fill-opacity:1;fill-rule:nonzero;stroke:none" />
  </g>
  <g
     id="layer21">
    <path
       d="m 175.90717,76.554536 c -16.39356,0 -29.71875,12.668332 -29.71875,28.281254 0,15.61292 13.32519,28.28124 29.71875,28.28125 16.39356,0 29.6875,-12.66833 29.6875,-28.28125 0,-15.612922 -13.29394,-28.281254 -29.6875,-28.281254 z m -1.34375,5.65625 c 13.12461,3e-6 23.78125,7.213903 23.78125,16.09375 -1e-5,8.879844 -10.65664,16.093754 -23.78125,16.093754 -13.12461,0 -23.78125,-7.2139 -23.78125,-16.093754 0,-8.87985 10.65664,-16.09375 23.78125,-16.09375 z"
       id="path3839"
       style="fill:url(#linearGradient3860);fill-opacity:1;fill-rule:nonzero;stroke:#000000;stroke-width:2.5999999;stroke-linecap:round;stroke-linejoin:round;stroke-miterlimit:4;stroke-opacity:1;stroke-dasharray:none;stroke-dashoffset:0;filter:url(#filter3902)" />
  </g>
  <g
     id="layer4"
     style="display:inline">
    <path
       d="m 220.13766,184.2244 c 6.29199,48.31253 -27.19514,80.25643 -69.37119,79.63974 -49.55565,-1.68072 -74.410307,-33.17669 -69.12764,-76.11313 5.931829,-48.21267 40.02738,-70.95654 67.41425,-71.32431 26.35582,-0.78679 64.00607,18.22563 71.08458,67.7977 z"
       id="path3763"
       style="fill:url(#linearGradient3772);fill-opacity:1;fill-rule:nonzero;stroke:none" />
  </g>
  <g
     id="layer24"
     style="display:inline">
    <path
       d="M 97.3125,145.53125 C 89.530998,156.42011 83.755594,170.43297 81.625,187.75 c -3.005798,24.43051 3.774424,45.14337 19.28125,58.78125 -7.854655,-15.16123 -12.53125,-33.99892 -12.53125,-54.375 0,-17.04815 3.273094,-32.98777 8.9375,-46.625 z m 108.15625,0.375 c 5.56981,13.55523 8.78125,29.35628 8.78125,46.25 0,18.44955 -3.82291,35.63211 -10.375,49.96875 12.69388,-13.93609 19.37536,-33.90839 16.25,-57.90625 -2.248,-15.74315 -7.58245,-28.38904 -14.65625,-38.3125 z"
       id="path3955"
       style="fill:url(#linearGradient3972);fill-opacity:1;fill-rule:nonzero;stroke:none;display:inline" />
  </g>
  <g
     id="layer25"
     style="display:inline">
    <path
       d="m 220.13766,184.2244 c 6.29199,48.31253 -27.19514,80.25643 -69.37119,79.63974 -49.55565,-1.68072 -74.410307,-33.17669 -69.12764,-76.11313 5.931829,-48.21267 40.02738,-70.95654 67.41425,-71.32431 26.35582,-0.78679 64.00607,18.22563 71.08458,67.7977 z"
       id="path3985"
       style="fill:url(#linearGradient3772);fill-opacity:1;fill-rule:nonzero;stroke:none;display:inline" />
    <path
       d="m 209.91881,232.30917 c -16.45384,11.27306 -37.92475,18.09375 -61.40625,18.09375 -22.72914,0 -43.57745,-6.39762 -59.812497,-17.03125 10.91592,18.00658 31.576507,29.41363 60.843747,30.40625 25.69143,0.37566 48.15913,-11.34039 60.375,-31.46875 z"
       id="path3994"
       style="opacity:0.7055016;fill:url(#linearGradient4019);fill-opacity:1;fill-rule:nonzero;stroke:none;display:inline" />
  </g>
  <g
     id="layer29"
     style="display:inline">
    <path
       d="m 107.65625,222.25 c -5.94244,0.17653 -16.92503,1.5709 -26.625,5.84375 C 96.20518,250.3689 121.75283,265 150.71875,265 c 0.75806,0 1.49672,-0.0113 2.25,-0.0312 10.75757,-38.21921 -33.34436,-43.131 -42.84375,-42.7188 -0.67202,-0.0265 -1.50623,-0.0286 -2.46875,0 z"
       id="path4057"
       style="opacity:0.4;fill:#000000;fill-opacity:1;fill-rule:evenodd;stroke:none;display:inline;filter:url(#filter4163)" />
    <path
       d="m 107.65625,222.25 c -5.94244,0.17653 -16.92503,1.5709 -26.625,5.84375 C 96.20518,250.3689 121.75283,265 150.71875,265 c 0.75806,0 1.49672,-0.0113 2.25,-0.0312 10.75757,-38.21921 -33.34436,-43.131 -42.84375,-42.7188 -0.67202,-0.0265 -1.50623,-0.0286 -2.46875,0 z"
       transform="matrix(-1,0,0,1,304.67854,0)"
       id="path4170"
       style="opacity:0.4;fill:#000000;fill-opacity:1;fill-rule:evenodd;stroke:none;display:inline;filter:url(#filter4163)" />
  </g>
  <g
     id="layer6"
     style="display:inline">
    <path
       d="m 101.875,228 c 8.875,-0.375 51.25,4.25 37.375,41.25 l -77.5,0 C 45.875,232.625 92.18066,227.62793 101.875,228 z"
       id="path3808"
       style="fill:url(#linearGradient3810);fill-opacity:1;fill-rule:evenodd;stroke:none" />
    <path
       d="m 201.5,228 c 8.875,-0.375 51.25,4.25 37.375,41.25 l -77.5,0 C 145.5,232.625 191.80566,227.62793 201.5,228 z"
       id="path3812"
       style="fill:url(#linearGradient3814);fill-opacity:1;fill-rule:evenodd;stroke:none" />
  </g>
  <g
     id="layer26"
     style="display:inline">
    <path
       d="m 117.73328,250.85608 a 24.395184,18.031223 0 1 1 -48.790367,0 24.395184,18.031223 0 1 1 48.790367,0 z"
       id="path4022"
       style="opacity:0.7055016;fill:url(#linearGradient4030);fill-opacity:1;fill-rule:nonzero;stroke:none" />
  </g>
  <g
     id="layer27"
     style="display:inline">
    <path
       d="m 117.73328,250.85608 a 24.395184,18.031223 0 1 1 -48.790367,0 24.395184,18.031223 0 1 1 48.790367,0 z"
       transform="translate(115,0)"
       id="path4033"
       style="opacity:0.7055016;fill:url(#linearGradient4035);fill-opacity:1;fill-rule:nonzero;stroke:none;display:inline" />
  </g>
  <g
     id="layer31">
    <path
       d="m 121.5,122.875 62,-3.75 c 0,0 -1,13.5 -7.75,13.5 -0.25,3.75 -18,23.625 -23.5,24 -3,-1 -11.5,3 -23.75,-20.5 -7.25,1 -15.25,-11.75 -7,-13.25 z"
       id="path4270"
       style="opacity:0.4;fill:#000000;fill-rule:evenodd;stroke:none;filter:url(#filter4300)" />
  </g>
  <g
     id="layer3"
     style="display:inline">
    <path
       d="m 150.61374,103.86626 a 24.04163,30.847534 0 1 1 -48.08326,0 24.04163,30.847534 0 1 1 48.08326,0 z"
       id="path3337"
       style="fill:#a4a4a4;fill-opacity:1;fill-rule:nonzero;stroke:none" />
    <path
       d="m 199.40411,100.5075 a 24.395185,27.488779 0 1 1 -48.79037,0 24.395185,27.488779 0 1 1 48.79037,0 z"
       transform="matrix(1,0,0,0.7909967,0,26.751641)"
       id="path3339"
       style="fill:#a4a4a4;fill-opacity:1;fill-rule:nonzero;stroke:none" />
    <path
       d="m 150.61374,103.86626 a 24.04163,30.847534 0 1 1 -48.08326,0 24.04163,30.847534 0 1 1 48.08326,0 z"
       transform="matrix(0.6561605,0,0,0.6561605,43.520496,35.713325)"
       id="path3187"
       style="fill:#d8d8d8;fill-opacity:1;fill-rule:nonzero;stroke:none;filter:url(#filter3755)" />
    <path
       d="m 199.40411,100.5075 a 24.395185,27.488779 0 1 1 -48.79037,0 24.395185,27.488779 0 1 1 48.79037,0 z"
       transform="matrix(0.6585366,0,0,0.5209003,59.759146,53.898358)"
       id="path3189"
       style="fill:#d8d8d8;fill-opacity:1;fill-rule:nonzero;stroke:none;filter:url(#filter3759)" />
  </g>
  <g
     id="layer10"
     style="display:inline">
    <path
       d="m 126.8125,73.8125 c -5.33616,0 -10.23775,2.280852 -14.1875,6.125 13.80669,2.556598 24.375,16.330508 24.375,32.9375 0,7.94221 -2.40766,15.23657 -6.4375,20.96875 11.21967,-2.30099 19.8125,-14.803 19.8125,-29.84375 0,-16.673614 -10.56759,-30.187498 -23.5625,-30.1875 z"
       id="path3317"
       style="fill:url(#linearGradient3343);fill-opacity:1;fill-rule:nonzero;stroke:none;display:inline" />
  </g>
  <g
     id="layer11"
     style="display:inline">
    <path
       d="m 110.71875,81.65625 c -4.81342,5.531975 -7.84375,13.562417 -7.84375,22.5 0,16.67361 10.56759,30.21875 23.5625,30.21875 4.67389,0 9.02385,-1.76358 12.6875,-4.78125 -16.11315,-0.13302 -29.15625,-17.57954 -29.15625,-39.0625 0,-3.048764 0.25302,-6.02662 0.75,-8.875 z"
       id="path3346"
       style="opacity:0.37999998;fill:url(#linearGradient3354);fill-opacity:1;fill-rule:nonzero;stroke:none;display:inline" />
  </g>
  <g
     id="layer12"
     style="display:inline">
    <path
       d="m 174.56562,85.057728 c -3.82324,0 -7.42921,0.81225 -10.62812,2.247088 12.26041,2.164315 21.62063,13.802884 21.62063,27.815304 0,3.73591 -0.64274,7.30404 -1.85233,10.56738 8.55507,-3.18972 14.5757,-10.71696 14.5757,-19.495 0,-11.662927 -10.63065,-21.134773 -23.71588,-21.134772 z"
       id="path3362"
       style="fill:url(#linearGradient3375);fill-opacity:1;fill-rule:nonzero;stroke:none;display:inline" />
  </g>
  <g
     id="layer13"
     style="display:inline">
    <path
       d="m 151.5625,110.5 c 2.17561,9.76354 11.8473,17.125 23.4375,17.125 11.22919,0 20.66374,-6.90862 23.21875,-16.21875 -5.54412,5.07104 -13.71843,8.28125 -22.84375,8.28125 -9.66041,0 -18.27736,-3.59288 -23.8125,-9.1875 z"
       id="path3378"
       style="opacity:0.37999998;fill:url(#linearGradient3386);fill-opacity:1;fill-rule:nonzero;stroke:none;display:inline" />
  </g>
  <g
     id="layer7"
     style="display:inline">
    <path
       d="m 150.43697,104.13142 a 7.2920389,11.490485 0 1 1 -14.58408,0 7.2920389,11.490485 0 1 1 14.58408,0 z"
       transform="matrix(1.1130411,0,0,1.0809756,-16.733954,-8.3071105)"
       id="path3849"
       style="fill:#000000;fill-opacity:1;fill-rule:nonzero;stroke:none" />
    <path
       d="m 164.3125,105.59375 a 6.34375,8.34375 0 1 1 -12.6875,0 6.34375,8.34375 0 1 1 12.6875,0 z"
       transform="matrix(1.0774438,0,0,1.0517486,-13.00422,-5.4643146)"
       id="path3851"
       style="fill:#000000;fill-opacity:1;fill-rule:nonzero;stroke:none" />
  </g>
  <g
     id="layer14"
     style="display:inline">
    <path
       d="m 142.59375,92.875 c -2.25271,0 -4.2614,1.493466 -5.65625,3.875 3.50134,0 6.50489,2.862497 7.78125,6.9375 l 5.25,-2 c -0.83377,-5.057224 -3.81342,-8.812502 -7.375,-8.8125 z"
       id="path3392"
       style="opacity:0.85;fill:url(#linearGradient3407);fill-opacity:1;fill-rule:nonzero;stroke:none;display:inline" />
  </g>
  <g
     id="layer15"
     style="display:inline">
    <path
       d="m 135.125,101.875 c -0.10693,0.77756 -0.15625,1.58025 -0.15625,2.40625 0,6.43411 3.42069,11.65625 7.625,11.65625 1.90379,0 3.63307,-1.10585 4.96875,-2.875 -0.0314,-7e-5 -0.0624,3.3e-4 -0.0937,0 -5.93032,-0.0631 -10.90795,-4.81763 -12.34375,-11.1875 z"
       id="path3411"
       style="opacity:0.6;fill:url(#linearGradient3426);fill-opacity:1;fill-rule:nonzero;stroke:none;display:inline" />
  </g>
  <g
     id="layer16"
     style="display:inline">
    <path
       d="m 157.3125,97.46875 c -2.17272,0 -4.07742,1.420262 -5.21875,3.5625 0.50319,-0.26263 1.0404,-0.40625 1.59375,-0.40625 2.1497,0 3.99264,2.12599 4.875,5.21875 l 4.96875,-1.78125 c -0.57369,-3.74061 -3.1417,-6.593752 -6.21875,-6.59375 z"
       id="path3430"
       style="opacity:0.85;fill:url(#linearGradient3445);fill-opacity:1;fill-rule:nonzero;stroke:none;display:inline" />
  </g>
  <g
     id="layer17"
     style="display:inline">
    <path
       d="m 151.125,103.75 c -0.12413,0.63505 -0.1875,1.31575 -0.1875,2 0,4.48971 2.81558,8.125 6.3125,8.125 1.02354,0 1.98775,-0.35207 2.84375,-0.90625 -0.0856,0.003 -0.16379,0.0312 -0.25,0.0312 -4.80944,0 -8.71875,-4.06144 -8.71875,-9.0625 0,-0.0624 -0.001,-0.12536 0,-0.1875 z"
       id="path3449"
       style="opacity:0.6;fill:url(#linearGradient3457);fill-opacity:1;fill-rule:nonzero;stroke:none;display:inline" />
  </g>
  <g
     id="layer5"
     style="display:inline">
    <path
       d="m 150.125,149.125 c -1.78125,0.125 -13.625,-5.4375 -18.375,-27.625 1.25,-1.75 23.4375,-12.3125 40.9375,2.5625 -0.4375,0.25 -12.99767,25.37711 -22.5625,25.0625 z"
       id="path2470"
       style="fill:url(#linearGradient3248);fill-opacity:1;fill-rule:evenodd;stroke:none" />
  </g>
  <g
     id="layer22"
     style="display:inline">
    <path
       d="m 150.75,117.34375 c -7.35264,0.0604 -13.51822,2.47087 -16,3.90625 0.64132,-0.0419 1.28385,-0.0625 1.9375,-0.0625 12.15366,0 22.33231,7.39412 24.875,17.25 4.87239,-6.33995 8.74166,-13.90149 8.96875,-14.03125 -6.40702,-5.44597 -13.52819,-7.1139 -19.78125,-7.0625 z"
       id="path3907"
       style="opacity:0.8;fill:url(#linearGradient3915);fill-opacity:1;fill-rule:evenodd;stroke:none;display:inline" />
  </g>
  <g
     id="layer23"
     style="display:inline">
    <path
       d="m 135.125,121.9375 c -1.0597,0.53645 -1.78721,0.99584 -1.96875,1.25 4.30969,20.13081 15.07137,25.17591 16.6875,25.0625 0.60265,0.0198 1.21948,-0.0625 1.84375,-0.25 -4.33079,-2.36577 -12.29407,-9.48765 -16.5625,-26.0625 z"
       id="path3921"
       style="opacity:0.6;fill:url(#linearGradient3929);fill-opacity:1;fill-rule:evenodd;stroke:none;display:inline" />
  </g>
</svg>
